<svg width="382" height="40" viewBox="0 0 382 40" fill="none" xmlns="http://www.w3.org/2000/svg">
<path d="M9.384 5.736C14.6 5.736 18.776 6.92 21.912 9.288C25.08 11.624 26.664 15.928 26.664 22.2C26.664 28.376 25.128 32.728 22.056 35.256C18.984 37.752 15 39 10.104 39H0.119995V5.736H9.384ZM7.992 11.448V33.288H10.584C13.176 33.288 15.144 32.488 16.488 30.888C17.832 29.256 18.504 26.36 18.504 22.2C18.504 19.352 18.168 17.144 17.496 15.576C16.824 14.008 15.912 12.936 14.76 12.36C13.608 11.752 12.184 11.448 10.488 11.448H7.992Z" fill="#141414"/>
<path d="M51.0289 31.608C51.0289 32.568 51.1569 33.272 51.4129 33.72C51.7009 34.168 52.1489 34.504 52.7569 34.728L51.1729 39.672C49.6049 39.544 48.3249 39.208 47.3329 38.664C46.3409 38.088 45.5729 37.192 45.0289 35.976C43.3649 38.536 40.8049 39.816 37.3489 39.816C34.8209 39.816 32.8049 39.08 31.3009 37.608C29.7969 36.136 29.0449 34.216 29.0449 31.848C29.0449 29.064 30.0689 26.936 32.1169 25.464C34.1649 23.992 37.1249 23.256 40.9969 23.256H43.5889V22.152C43.5889 20.648 43.2689 19.624 42.6289 19.08C41.9889 18.504 40.8689 18.216 39.2689 18.216C38.4369 18.216 37.4289 18.344 36.2449 18.6C35.0609 18.824 33.8449 19.144 32.5969 19.56L30.8689 14.568C32.4689 13.96 34.1009 13.496 35.7649 13.176C37.4609 12.856 39.0289 12.696 40.4689 12.696C44.1169 12.696 46.7889 13.448 48.4849 14.952C50.1809 16.456 51.0289 18.712 51.0289 21.72V31.608ZM39.5569 34.392C41.2849 34.392 42.6289 33.576 43.5889 31.944V27.432H41.7169C39.9889 27.432 38.6929 27.736 37.8289 28.344C36.9969 28.952 36.5809 29.896 36.5809 31.176C36.5809 32.2 36.8369 33 37.3489 33.576C37.8929 34.12 38.6289 34.392 39.5569 34.392Z" fill="#141414"/>
<path d="M71.9977 12.696C74.2057 12.696 75.9337 13.368 77.1817 14.712C78.4297 16.056 79.0537 17.944 79.0537 20.376V39H71.4697V21.672C71.4697 20.392 71.2617 19.512 70.8457 19.032C70.4617 18.52 69.8697 18.264 69.0697 18.264C67.5337 18.264 66.0617 19.368 64.6537 21.576V39H57.0697V13.512H63.6937L64.2217 16.536C65.3097 15.256 66.4777 14.296 67.7257 13.656C69.0057 13.016 70.4297 12.696 71.9977 12.696Z" fill="#141414"/>
<path d="M92.3569 13.512V39H84.7729V13.512H92.3569ZM88.5169 0.0719986C89.8289 0.0719986 90.9009 0.487999 91.7329 1.32C92.5969 2.12 93.0289 3.144 93.0289 4.392C93.0289 5.64 92.5969 6.68 91.7329 7.512C90.9009 8.312 89.8289 8.712 88.5169 8.712C87.2049 8.712 86.1329 8.312 85.3009 7.512C84.4689 6.68 84.0529 5.64 84.0529 4.392C84.0529 3.144 84.4689 2.12 85.3009 1.32C86.1329 0.487999 87.2049 0.0719986 88.5169 0.0719986Z" fill="#141414"/>
<path d="M120.544 25.752C120.544 26.808 120.496 27.72 120.4 28.488H104.608C104.864 30.632 105.472 32.136 106.432 33C107.392 33.864 108.72 34.296 110.416 34.296C111.44 34.296 112.432 34.12 113.392 33.768C114.352 33.384 115.392 32.808 116.512 32.04L119.632 36.264C116.656 38.632 113.344 39.816 109.696 39.816C105.568 39.816 102.4 38.6 100.192 36.168C97.9837 33.736 96.8797 30.472 96.8797 26.376C96.8797 23.784 97.3437 21.464 98.2717 19.416C99.1997 17.336 100.56 15.704 102.352 14.52C104.144 13.304 106.288 12.696 108.784 12.696C112.464 12.696 115.344 13.848 117.424 16.152C119.504 18.456 120.544 21.656 120.544 25.752ZM113.104 23.592C113.04 19.688 111.664 17.736 108.976 17.736C107.664 17.736 106.64 18.216 105.904 19.176C105.2 20.136 104.768 21.72 104.608 23.928H113.104V23.592Z" fill="#141414"/>
<path d="M131.572 39.816C129.364 39.816 127.636 39.192 126.388 37.944C125.172 36.664 124.564 34.856 124.564 32.52V3.384L132.148 2.568V32.232C132.148 33.288 132.58 33.816 133.444 33.816C133.892 33.816 134.308 33.736 134.692 33.576L136.18 38.952C134.804 39.528 133.268 39.816 131.572 39.816Z" fill="#141414"/>
<path d="M173.293 3.384V39H166.573L166.189 36.024C164.397 38.552 161.981 39.816 158.941 39.816C155.773 39.816 153.357 38.6 151.693 36.168C150.061 33.736 149.245 30.408 149.245 26.184C149.245 23.592 149.677 21.272 150.541 19.224C151.405 17.176 152.621 15.576 154.189 14.424C155.789 13.272 157.613 12.696 159.661 12.696C162.093 12.696 164.109 13.496 165.709 15.096V2.568L173.293 3.384ZM161.293 34.248C163.053 34.248 164.525 33.288 165.709 31.368V20.376C165.101 19.64 164.477 19.096 163.837 18.744C163.229 18.392 162.525 18.216 161.725 18.216C160.317 18.216 159.197 18.872 158.365 20.184C157.533 21.496 157.117 23.512 157.117 26.232C157.117 29.208 157.469 31.288 158.173 32.472C158.909 33.656 159.949 34.248 161.293 34.248Z" fill="#141414"/>
<path d="M201.45 25.752C201.45 26.808 201.402 27.72 201.306 28.488H185.514C185.77 30.632 186.378 32.136 187.338 33C188.298 33.864 189.626 34.296 191.322 34.296C192.346 34.296 193.338 34.12 194.298 33.768C195.258 33.384 196.298 32.808 197.418 32.04L200.538 36.264C197.562 38.632 194.25 39.816 190.602 39.816C186.474 39.816 183.306 38.6 181.098 36.168C178.89 33.736 177.786 30.472 177.786 26.376C177.786 23.784 178.25 21.464 179.178 19.416C180.106 17.336 181.466 15.704 183.258 14.52C185.05 13.304 187.194 12.696 189.69 12.696C193.37 12.696 196.25 13.848 198.33 16.152C200.41 18.456 201.45 21.656 201.45 25.752ZM194.01 23.592C193.946 19.688 192.57 17.736 189.882 17.736C188.57 17.736 187.546 18.216 186.81 19.176C186.106 20.136 185.674 21.72 185.514 23.928H194.01V23.592Z" fill="#141414"/>
<path d="M230.685 4.92C235.421 4.92 239.101 6.44 241.725 9.48C244.381 12.52 245.709 16.808 245.709 22.344C245.709 25.96 245.101 29.08 243.885 31.704C242.701 34.328 240.973 36.344 238.701 37.752C236.461 39.128 233.789 39.816 230.685 39.816C227.581 39.816 224.909 39.128 222.669 37.752C220.429 36.376 218.701 34.392 217.485 31.8C216.301 29.176 215.709 26.024 215.709 22.344C215.709 18.76 216.301 15.656 217.485 13.032C218.701 10.408 220.429 8.408 222.669 7.032C224.909 5.624 227.581 4.92 230.685 4.92ZM230.685 10.68C228.413 10.68 226.717 11.608 225.597 13.464C224.509 15.288 223.965 18.248 223.965 22.344C223.965 26.44 224.525 29.416 225.645 31.272C226.765 33.128 228.445 34.056 230.685 34.056C232.989 34.056 234.685 33.144 235.773 31.32C236.893 29.464 237.453 26.472 237.453 22.344C237.453 18.216 236.893 15.24 235.773 13.416C234.653 11.592 232.957 10.68 230.685 10.68Z" fill="#141414"/>
<path d="M257.056 39.816C254.848 39.816 253.12 39.192 251.872 37.944C250.656 36.664 250.048 34.856 250.048 32.52V3.384L257.633 2.568V32.232C257.633 33.288 258.064 33.816 258.928 33.816C259.376 33.816 259.792 33.736 260.176 33.576L261.664 38.952C260.288 39.528 258.752 39.816 257.056 39.816Z" fill="#141414"/>
<path d="M272.122 13.512V39H264.538V13.512H272.122ZM268.283 0.0719986C269.595 0.0719986 270.667 0.487999 271.499 1.32C272.363 2.12 272.794 3.144 272.794 4.392C272.794 5.64 272.363 6.68 271.499 7.512C270.667 8.312 269.595 8.712 268.283 8.712C266.971 8.712 265.898 8.312 265.066 7.512C264.234 6.68 263.818 5.64 263.818 4.392C263.818 3.144 264.234 2.12 265.066 1.32C265.898 0.487999 266.971 0.0719986 268.283 0.0719986Z" fill="#141414"/>
<path d="M300.021 13.512L292.005 39H283.029L274.821 13.512H283.077L287.589 33.24L292.293 13.512H300.021Z" fill="#141414"/>
<path d="M324.544 25.752C324.544 26.808 324.496 27.72 324.4 28.488H308.608C308.864 30.632 309.472 32.136 310.432 33C311.392 33.864 312.72 34.296 314.416 34.296C315.44 34.296 316.432 34.12 317.392 33.768C318.352 33.384 319.392 32.808 320.512 32.04L323.632 36.264C320.656 38.632 317.344 39.816 313.696 39.816C309.568 39.816 306.4 38.6 304.192 36.168C301.984 33.736 300.88 30.472 300.88 26.376C300.88 23.784 301.344 21.464 302.272 19.416C303.2 17.336 304.56 15.704 306.352 14.52C308.144 13.304 310.288 12.696 312.784 12.696C316.464 12.696 319.344 13.848 321.424 16.152C323.504 18.456 324.544 21.656 324.544 25.752ZM317.104 23.592C317.04 19.688 315.664 17.736 312.976 17.736C311.664 17.736 310.64 18.216 309.904 19.176C309.2 20.136 308.768 21.72 308.608 23.928H317.104V23.592Z" fill="#141414"/>
<path d="M336.388 13.512V39H328.804V13.512H336.388ZM332.548 0.0719986C333.86 0.0719986 334.932 0.487999 335.764 1.32C336.628 2.12 337.06 3.144 337.06 4.392C337.06 5.64 336.628 6.68 335.764 7.512C334.932 8.312 333.86 8.712 332.548 8.712C331.236 8.712 330.164 8.312 329.332 7.512C328.5 6.68 328.084 5.64 328.084 4.392C328.084 3.144 328.5 2.12 329.332 1.32C330.164 0.487999 331.236 0.0719986 332.548 0.0719986Z" fill="#141414"/>
<path d="M356.175 12.792C357.103 12.792 357.951 12.904 358.719 13.128L357.519 20.472C356.559 20.248 355.791 20.136 355.215 20.136C353.711 20.136 352.559 20.664 351.759 21.72C350.991 22.744 350.383 24.296 349.935 26.376V39H342.351V13.512H348.975L349.599 18.456C350.175 16.696 351.039 15.32 352.191 14.328C353.375 13.304 354.703 12.792 356.175 12.792Z" fill="#141414"/>
<path d="M380.185 31.608C380.185 32.568 380.313 33.272 380.569 33.72C380.857 34.168 381.305 34.504 381.913 34.728L380.329 39.672C378.761 39.544 377.481 39.208 376.489 38.664C375.497 38.088 374.729 37.192 374.185 35.976C372.521 38.536 369.961 39.816 366.505 39.816C363.977 39.816 361.961 39.08 360.457 37.608C358.953 36.136 358.201 34.216 358.201 31.848C358.201 29.064 359.225 26.936 361.273 25.464C363.321 23.992 366.281 23.256 370.153 23.256H372.745V22.152C372.745 20.648 372.425 19.624 371.785 19.08C371.145 18.504 370.025 18.216 368.425 18.216C367.593 18.216 366.585 18.344 365.401 18.6C364.217 18.824 363.001 19.144 361.753 19.56L360.025 14.568C361.625 13.96 363.257 13.496 364.921 13.176C366.617 12.856 368.185 12.696 369.625 12.696C373.273 12.696 375.945 13.448 377.641 14.952C379.337 16.456 380.185 18.712 380.185 21.72V31.608ZM368.713 34.392C370.441 34.392 371.785 33.576 372.745 31.944V27.432H370.873C369.145 27.432 367.849 27.736 366.985 28.344C366.153 28.952 365.737 29.896 365.737 31.176C365.737 32.2 365.993 33 366.505 33.576C367.049 34.12 367.785 34.392 368.713 34.392Z" fill="#141414"/>
</svg>
