<svg width="22" height="14" viewBox="0 0 22 14" fill="none" xmlns="http://www.w3.org/2000/svg">
<path d="M16.5 0C14.55 0 12.45 0.321023 11 1.20384C9.55 0.321023 7.45 0 5.5 0C4.05 0 2.51 0.176563 1.22 0.634021C0.49 0.898865 0 1.46868 0 2.11875V11.1716C0 12.2149 1.22 12.9854 2.48 12.7286C3.46 12.5279 4.5 12.4397 5.5 12.4397C7.06 12.4397 8.72 12.6483 10.06 13.178C10.66 13.4188 11.34 13.4188 11.93 13.178C13.27 12.6403 14.93 12.4397 16.49 12.4397C17.49 12.4397 18.53 12.5279 19.51 12.7286C20.77 12.9934 21.99 12.223 21.99 11.1716V2.11875C21.99 1.46868 21.5 0.898865 20.77 0.634021C19.49 0.176563 17.95 0 16.5 0ZM20 10.2166C20 10.7222 19.42 11.0914 18.8 11.0031C18.05 10.8907 17.27 10.8426 16.5 10.8426C14.8 10.8426 12.35 11.3642 11 12.0464V2.80895C12.35 2.12678 14.8 1.60512 16.5 1.60512C17.42 1.60512 18.33 1.67735 19.2 1.82983C19.66 1.91009 20 2.23914 20 2.61634V10.2166Z" fill="url(#paint0_linear_2_205)"/>
<path d="M12.98 5.22459C12.66 5.22459 12.37 5.06408 12.27 4.80726C12.14 4.49426 12.36 4.14915 12.75 4.05284C14.29 3.65156 16.28 3.52315 18.11 3.69169C18.52 3.73181 18.82 4.02876 18.77 4.35781C18.72 4.68688 18.35 4.92764 17.94 4.88751C16.32 4.73503 14.55 4.85541 13.21 5.20051C13.13 5.20854 13.05 5.22459 12.98 5.22459Z" fill="url(#paint1_linear_2_205)"/>
<path d="M12.98 7.35946C12.66 7.35946 12.37 7.19895 12.27 6.94213C12.14 6.62913 12.36 6.28403 12.75 6.18773C14.28 5.78645 16.28 5.65804 18.11 5.82657C18.52 5.8667 18.82 6.16365 18.77 6.4927C18.72 6.82175 18.35 7.06251 17.94 7.02239C16.32 6.8699 14.55 6.99028 13.21 7.33538C13.13 7.35144 13.05 7.35946 12.98 7.35946Z" fill="url(#paint2_linear_2_205)"/>
<path d="M12.98 9.49423C12.66 9.49423 12.37 9.33372 12.27 9.0769C12.14 8.7639 12.36 8.4188 12.75 8.32249C14.28 7.92121 16.28 7.7928 18.11 7.96134C18.52 8.00147 18.82 8.29841 18.77 8.62746C18.72 8.95651 18.35 9.18925 17.94 9.15715C16.32 9.00467 14.55 9.12505 13.21 9.47015C13.13 9.4862 13.05 9.49423 12.98 9.49423Z" fill="url(#paint3_linear_2_205)"/>
<defs>
<linearGradient id="paint0_linear_2_205" x1="10.995" y1="0" x2="10.995" y2="13.3586" gradientUnits="userSpaceOnUse">
<stop stop-color="#53ACFF"/>
<stop offset="1" stop-color="#0078E7"/>
</linearGradient>
<linearGradient id="paint1_linear_2_205" x1="15.504" y1="3.61938" x2="15.504" y2="5.22459" gradientUnits="userSpaceOnUse">
<stop stop-color="#53ACFF"/>
<stop offset="1" stop-color="#0078E7"/>
</linearGradient>
<linearGradient id="paint2_linear_2_205" x1="15.504" y1="5.75426" x2="15.504" y2="7.35946" gradientUnits="userSpaceOnUse">
<stop stop-color="#53ACFF"/>
<stop offset="1" stop-color="#0078E7"/>
</linearGradient>
<linearGradient id="paint3_linear_2_205" x1="15.504" y1="7.88911" x2="15.504" y2="9.49423" gradientUnits="userSpaceOnUse">
<stop stop-color="#53ACFF"/>
<stop offset="1" stop-color="#0078E7"/>
</linearGradient>
</defs>
</svg>
