<svg width="22" height="17" viewBox="0 0 22 17" fill="none" xmlns="http://www.w3.org/2000/svg">
<path d="M11.65 10.971C11.79 10.6821 11.7 10.353 11.42 10.1283L9.33 8.47502L9.36 8.45094C11.1 6.89398 12.34 5.10427 13.07 3.21023H15.01C15.55 3.21023 16 2.84908 16 2.4157V2.39965C16 1.96627 15.55 1.60512 15.01 1.60512H9V0.802558C9 0.361151 8.55 0 8 0C7.45 0 7 0.361151 7 0.802558V1.60512H0.99C0.45 1.60512 0 1.96627 0 2.39965C0 2.84106 0.45 3.19418 0.99 3.19418H11.17C10.5 4.75115 9.44 6.21983 8 7.50392C7.19 6.78964 6.51 6.01116 5.94 5.19255C5.78 4.95981 5.49 4.81535 5.16 4.81535C4.47 4.81535 4.03 5.41727 4.37 5.8988C5 6.8057 5.77 7.67246 6.67 8.47502L2.3 11.934C1.9 12.247 1.9 12.7607 2.3 13.0737C2.69 13.3867 3.32 13.3867 3.72 13.0737L8 9.6307L10.02 11.2519C10.53 11.6612 11.4 11.5087 11.65 10.971ZM16.5 6.42047C15.9 6.42047 15.36 6.71741 15.15 7.17487L11.48 15.0399C11.24 15.5295 11.7 16.0512 12.35 16.0512C12.74 16.0512 13.09 15.8586 13.23 15.5616L14.12 13.6435H18.87L19.77 15.5616C19.91 15.8505 20.26 16.0512 20.65 16.0512C21.3 16.0512 21.76 15.5295 21.53 15.0399L17.86 7.17487C17.64 6.71741 17.1 6.42047 16.5 6.42047ZM14.88 12.0384L16.5 8.5633L18.12 12.0384H14.88Z" fill="url(#paint0_linear_2_200)"/>
<defs>
<linearGradient id="paint0_linear_2_200" x1="10.795" y1="0" x2="10.795" y2="16.0512" gradientUnits="userSpaceOnUse">
<stop stop-color="#B6F829"/>
<stop offset="0.0001" stop-color="#53ACFF"/>
<stop offset="1" stop-color="#0078E7"/>
</linearGradient>
</defs>
</svg>
